<?xml version="1.0" encoding="UTF-8"?>
<svg version="1.1" xmlns="http://www.w3.org/2000/svg" width="500" height="500">
<path d="M0 0 C165 0 330 0 500 0 C500 165 500 330 500 500 C335 500 170 500 0 500 C0 335 0 170 0 0 Z " fill="#191919" transform="translate(0,0)"/>
<path d="M0 0 C5.38161086 4.24094334 10.15234201 9.17344937 15 14 C15.95479157 14.93861436 16.91040607 15.87639211 17.86669922 16.81347656 C21.00355563 19.88733774 24.12828893 22.97326811 27.25 26.0625 C27.76180817 26.56699677 28.27361633 27.07149353 28.80093384 27.59127808 C30.27381635 29.04634262 31.73940456 30.50838194 33.203125 31.97265625 C34.05551758 32.82093994 34.90791016 33.66922363 35.78613281 34.54321289 C39.62648729 38.80495607 41.63099908 42.09486024 41.4296875 48 C40.65395507 51.61068185 38.60947818 53.45265225 36 56 C32.68659449 57.65670275 29.55702038 57.72605322 26 57 C16.6410645 51.06128727 8.75174081 40.73252876 1.05688477 32.81005859 C-0.89938177 30.79889866 -2.86847022 28.80102741 -4.83984375 26.8046875 C-5.42450912 26.19623993 -6.0091745 25.58779236 -6.61155701 24.96090698 C-13.60192708 17.92755867 -20.96760671 13.92165077 -30.9375 13.6875 C-56.05047616 13.94088205 -71.94868516 33.79041621 -88.36328125 50.16015625 C-89.07168844 50.86573606 -89.78009563 51.57131588 -90.50996971 52.2982769 C-94.24898378 56.02243373 -97.98521881 59.7493509 -101.71899414 63.47875977 C-105.54940398 67.3036616 -109.38902993 71.11917159 -113.2308321 74.93262577 C-116.21204888 77.89514409 -119.1864639 80.86442206 -122.15910912 83.83553886 C-123.57146263 85.24488869 -124.98628916 86.65176517 -126.40374184 88.0559864 C-139.42383202 100.96302784 -152.5661029 114.87917483 -153.4375 134.1875 C-153.30172856 143.23196648 -150.46185887 150.69002243 -144 157 C-144 157.66 -144 158.32 -144 159 C-143.443125 159.20625 -142.88625 159.4125 -142.3125 159.625 C-139.74445005 161.15194862 -138.2979939 162.99503498 -136.4609375 165.31640625 C-134.88985314 167.12693395 -133.21476354 168.58936064 -131.375 170.125 C-127.79458815 173.15924733 -124.67617323 176.50022265 -121.5625 180 C-114.59772137 187.75639455 -106.78429403 195.68510729 -95.8359375 196.46875 C-94.34931711 196.50303369 -92.86196196 196.51263662 -91.375 196.5 C-90.58738281 196.49427979 -89.79976563 196.48855957 -88.98828125 196.48266602 C-71.75247201 195.96243885 -59.78865076 185.27789597 -48.31070709 173.53620148 C-46.60174781 171.78836335 -44.88307629 170.05058937 -43.1618042 168.31488037 C-39.51592723 164.63503538 -35.88211744 160.94342002 -32.25 157.25 C-28.0227392 152.9516928 -23.79054277 148.65848536 -19.5455246 144.37770844 C-17.85870367 142.67155414 -16.18122424 140.95657715 -14.50396729 139.24102783 C-13.46565783 138.19181734 -12.42692291 137.14302765 -11.38769531 136.09472656 C-10.48964172 135.18096252 -9.59158813 134.26719849 -8.6663208 133.32574463 C-5.03838943 130.16121848 -1.7399205 128.21305149 3.0625 127.625 C7.58601658 128.2024702 10.01118546 129.73840904 12.8125 133.3125 C14.25444674 136.57585314 14.50535514 138.46251404 14 142 C11.42898114 146.29285836 8.48370053 149.77249654 4.96289062 153.31176758 C4.47439636 153.80537277 3.9859021 154.29897797 3.48260498 154.80754089 C1.87891863 156.42503315 0.26800688 158.03508359 -1.34375 159.64453125 C-2.47535562 160.78003152 -3.60674009 161.91575222 -4.73791504 163.05168152 C-7.10834242 165.42955394 -9.48258496 167.80353686 -11.859375 170.17504883 C-14.87551476 173.18542642 -17.8802041 176.20694383 -20.88179779 179.23181629 C-23.21710114 181.5820039 -25.55945835 183.92506563 -27.90376282 186.26627159 C-29.01266433 187.37567997 -30.11926381 188.4873951 -31.22331238 189.60163307 C-40.37534498 198.82766876 -49.83748323 207.64358134 -61.875 212.9375 C-62.48601562 213.21400391 -63.09703125 213.49050781 -63.7265625 213.77539062 C-77.83873919 220.06254626 -95.82694952 221.91823395 -110.6875 216.9375 C-120.64833012 213.10044871 -128.60019065 205.86658069 -136.04296875 198.42578125 C-136.85566727 197.62069626 -137.66836578 196.81561127 -138.50569153 195.98612976 C-140.20936681 194.29318365 -141.90917116 192.59633382 -143.60522461 190.89575195 C-146.17753215 188.32247162 -148.77044328 185.77128576 -151.36523438 183.22070312 C-165.34884536 169.33851444 -175.92110962 156.18399599 -176.3125 135.6875 C-176.3125 106.58353078 -158.0734406 87.75548922 -138.68359375 68.3125 C-136.98211527 66.6020366 -135.28070557 64.89150477 -133.57936096 63.1809082 C-130.02168915 59.60681069 -126.45970413 56.03707297 -122.89526367 52.46972656 C-118.36040663 47.92949226 -113.84192568 43.37332826 -109.32728481 38.81300354 C-105.820774 35.27654609 -102.30286079 31.7515963 -98.781847 28.22958374 C-97.11262186 26.55619139 -95.44745777 24.87873664 -93.78671074 23.19692993 C-81.89457658 11.16605284 -69.60205294 -0.95532475 -53 -6 C-52.11570312 -6.29519531 -51.23140625 -6.59039062 -50.3203125 -6.89453125 C-33.46558781 -11.89613654 -14.76452808 -9.68465332 0 0 Z " fill="#FCFCFC" transform="translate(258,197)"/>
<path d="M0 0 C8.77236191 6.96707251 16.59214528 15.33996281 24.52392578 23.22875977 C26.01069558 24.7039524 27.50193627 26.17465238 28.99755859 27.64086914 C45.06072215 43.38965414 45.06072215 43.38965414 49 52 C49.48210937 53.01707031 49.96421875 54.03414062 50.4609375 55.08203125 C56.16935951 72.13411238 53.97062365 90.35468346 46.1875 106.25 C37.87926797 122.4681371 24.40479059 134.76463348 11.66796875 147.53515625 C10.57749457 148.62987149 10.57749457 148.62987149 9.46499062 149.74670219 C5.62184731 153.60474144 1.77591092 157.45996932 -2.07250977 161.31274414 C-6.01610727 165.26183001 -9.95033089 169.22011762 -13.8824358 173.18064213 C-16.9376652 176.25461055 -19.99969435 179.32173851 -23.06354332 182.38711357 C-24.51589984 183.84246881 -25.96578934 185.30029084 -27.41300392 186.76075935 C-45.1071284 204.60540164 -64.61243797 219.90740886 -90.875 220.5 C-111.14697958 219.69950561 -124.99275809 209.72926346 -138.34301758 195.37841797 C-139.52832946 194.08738777 -140.71047997 192.79344773 -141.8894043 191.49658203 C-145.44892921 187.59484314 -149.10076033 183.99377579 -153.0625 180.5 C-163.14557546 171.47282182 -163.14557546 171.47282182 -163.625 164.375 C-163.43087069 160.70532976 -163.02226615 160.02740449 -160.5625 157 C-159.2940625 156.01 -159.2940625 156.01 -158 155 C-157.67 154.67 -157.34 154.34 -157 154 C-151.35520291 153.62368019 -148.74334746 153.73540081 -144 157 C-141.3698648 159.41667812 -138.90348368 161.98312237 -136.42578125 164.5546875 C-134.93859534 166.07205017 -133.45095043 167.58896308 -131.96289062 169.10546875 C-129.63845971 171.485494 -127.31814235 173.86916234 -125.00610352 176.26123047 C-122.76159865 178.57886577 -120.50120994 180.88005641 -118.23828125 183.1796875 C-117.2236657 184.24242386 -117.2236657 184.24242386 -116.18855286 185.32662964 C-109.51365301 192.07023848 -101.42382877 197.03139406 -91.75 197.375 C-69.80094178 197.1361348 -55.53882863 182.15060708 -41.109375 167.640625 C-39.39366927 165.92761867 -37.67737055 164.21520609 -35.96051025 162.50335693 C-32.37696961 158.92569011 -28.80070308 155.3409497 -25.22949219 151.75097656 C-20.67162128 147.17031834 -16.09602458 142.60785599 -11.51479721 138.05057144 C-7.97117561 134.52146472 -4.4372109 130.98281093 -0.90601349 127.44127655 C0.77662099 125.75599053 2.46218539 124.07362416 4.1508255 122.39435577 C17.50740902 109.09568296 30.23199668 96.40919468 30.5 76.4375 C30.40801918 67.43524811 28.44900456 59.62814357 22 53 C20.03923652 51.27521462 18.05769219 49.57685202 16.0703125 47.8828125 C14.0531334 46.04832132 12.3186115 44.14532992 10.5625 42.0625 C7.35449233 38.27455501 3.81490973 35.06204878 0.0703125 31.8125 C-3.25112929 28.90467171 -6.2986551 25.77927211 -9.25 22.5 C-16.39842228 16.0014343 -23.50329238 13.67149884 -33 13.78515625 C-52.69553626 15.19564387 -66.17009147 28.84563018 -79.28125 42.12109375 C-80.4275018 43.27363188 -81.57428093 44.42564577 -82.72155762 45.5771637 C-85.7104676 48.57924771 -88.69371655 51.58688677 -91.67529297 54.59625244 C-96.47316186 59.43761285 -101.27812999 64.27190587 -106.08616638 69.10316658 C-107.76041623 70.78763285 -109.43121534 72.47546656 -111.10168457 74.16368103 C-112.12041054 75.18923024 -113.13924408 76.21467261 -114.15820312 77.23999023 C-115.04737427 78.1374144 -115.93654541 79.03483856 -116.85266113 79.9594574 C-120.13306769 83.07671543 -122.4310811 83.34707595 -126.96484375 83.28125 C-130.22946589 82.83009301 -131.81185064 81.38122136 -134 79 C-136.04377798 75.30173509 -136.73595885 72.17043349 -136 68 C-130.78498193 60.72698494 -123.72799607 54.51223505 -117.43359375 48.16015625 C-116.88379412 47.60503294 -116.33399448 47.04990963 -115.76753426 46.4779644 C-112.85627252 43.54014777 -109.94145832 40.60590363 -107.02416992 37.67407227 C-104.63847508 35.2750663 -102.26025329 32.86901652 -99.88842773 30.45629883 C-96.993381 27.51138476 -94.08573719 24.57945476 -91.1691761 21.65585136 C-90.07390806 20.55396309 -88.98281892 19.44790137 -87.89645195 18.3372364 C-64.45035537 -5.60307232 -30.98805528 -18.99684887 0 0 Z " fill="#FCFCFC" transform="translate(363,91)"/>
</svg>
